HIERARCHY
ROOT hip
{
  OFFSET 0 0 0
  CHANNELS 6 Xposition Yposition Zposition Yrotation Xrotation Zrotation
  JOINT chest
  {
    OFFSET 0 0 0
    CHANNELS 6 Xposition Yposition Zposition Yrotation Xrotation Zrotation
    JOINT head
    {
      OFFSET 0 0 0
      CHANNELS 6 Xposition Yposition Zposition Yrotation Xrotation Zrotation
      EndSite
      {
        OFFSET 0 0 0
      }
    }

    JOINT lHand
    {
      OFFSET 0 0 0
      CHANNELS 6 Xposition Yposition Zposition Yrotation Xrotation Zrotation
      EndSite
      {
        OFFSET 0 0 0
      }
    }



    JOINT rHand
    {
      OFFSET 0 0 0
      CHANNELS 6 Xposition Yposition Zposition Yrotation Xrotation Zrotation
      EndSite
      {
        OFFSET 0 0 0
      }
    }



  }


  JOINT lFoot
  {
    OFFSET 0 0 0
    CHANNELS 6 Xposition Yposition Zposition Yrotation Xrotation Zrotation
    EndSite
    {
      OFFSET 0 0 0
    }
  }


  JOINT rFoot
  {
    OFFSET 0 0 0
    CHANNELS 6 Xposition Yposition Zposition Yrotation Xrotation Zrotation
    EndSite
    {
      OFFSET 0 0 0
    }
  }


}

MOTION
Frames: 22
Frame Time: 0.1
0.838687 59.953270 70.818970 -359.495000 306.098000 -354.837400 -1.068026 113.455000 47.010080 -351.471500 357.311300 -0.129975 -2.650366 141.734800 60.599270 -355.478500 57.364650 -359.847700 26.205150 110.719800 91.423250 -101.621700 356.402700 -347.170600 -20.178340 106.373500 89.392470 -265.139100 328.147100 -21.965810 19.223540 41.163520 34.315420 -74.868090 79.845100 -87.269710 -29.384530 41.762570 41.830030 -211.287500 60.350840 -193.044800 
-0.458880 65.057030 69.152190 -1.550132 311.703200 -353.539500 -1.641557 113.380300 46.276340 -352.337100 357.256600 -357.151600 -2.750050 142.330100 59.571140 -355.238400 52.907280 -357.865400 26.379020 111.562800 87.833450 -103.189400 349.695600 -346.965700 -21.605330 107.999000 84.492180 -265.121400 328.163700 -25.031560 18.439170 42.176670 32.103570 -75.890260 81.175660 -88.302250 -29.276780 42.092550 42.066500 -205.972700 62.969690 -188.911100 
-1.970827 70.555150 67.448230 -3.576328 317.890800 -352.171400 -2.294705 113.244600 45.500190 -353.269400 357.236400 -353.750600 -2.879559 143.018200 58.465780 -355.218300 48.079010 -355.822100 26.537580 112.579700 83.983990 -105.025000 342.336100 -346.483900 -23.128330 109.741700 79.262390 -265.078300 328.207800 -28.356030 17.557140 43.538350 29.595990 -79.926990 82.591480 -92.357200 -29.148490 42.414670 42.328880 -199.163700 65.438810 -183.346300 
-3.605277 76.278600 65.723020 -5.415686 324.456400 -350.948400 -2.993349 113.074100 44.699780 -354.239600 357.268800 -350.103300 -3.026110 143.759300 57.316250 -355.432400 43.024040 -353.799200 26.687390 113.695800 79.986110 -107.168000 334.557000 -345.644900 -24.706190 111.551500 73.844310 -265.023600 328.269900 -31.831720 16.619320 45.099170 26.919420 -87.726680 83.973020 -100.179600 -29.008460 42.732270 42.606060 -190.738500 67.594830 -176.199200 
-5.270352 82.058400 63.992500 -7.006495 331.162100 -349.994800 -3.703367 112.894800 43.893330 -355.216400 357.363100 -346.391400 -3.176922 144.513600 56.155710 -355.861400 37.899540 -351.855800 26.835010 114.836800 75.951140 -109.683200 326.634900 -344.353600 -26.297770 113.378100 68.379170 -264.969900 328.338900 -35.348750 15.667550 46.709790 24.200590 -100.321900 85.170590 -112.798500 -28.865500 43.048740 42.886940 -180.768300 69.273950 -167.512000 
-6.874176 87.725510 62.272600 -8.341159 337.755200 -349.387800 -4.390636 112.733000 43.098990 -356.167700 357.518700 -342.798900 -3.319212 145.241400 55.017230 -356.464800 32.867560 -350.043200 26.987000 115.928100 71.990360 -112.660600 318.871400 -342.498400 -27.861920 115.171100 63.008150 -264.927800 328.402300 -38.796760 14.743670 48.220820 21.566260 -118.134500 86.043390 -130.632400 -28.728390 43.367470 43.160420 -169.667800 70.351440 -157.670800 
-8.324871 93.110950 60.579250 -9.438891 343.988100 -349.184800 -5.021037 112.614800 42.334950 -357.063400 357.725300 -339.507700 -3.440199 145.903000 53.933930 -357.188700 28.086100 -348.413900 27.149930 116.895300 68.215080 -116.207900 311.567500 -339.956300 -29.357480 116.880300 57.872500 -264.905900 328.446600 -42.066750 13.889550 49.482920 19.143170 -139.365400 86.557240 -151.879100 -28.605970 43.691820 43.415390 -158.207000 70.792420 -147.417600 
-9.530561 98.045720 58.928410 -10.328400 349.634200 -349.440300 -5.560446 112.566200 41.619390 -357.877100 357.964800 -336.694700 -3.527102 146.458600 52.938910 -357.970900 23.701500 -347.026900 27.330370 117.663800 64.736580 -120.423300 304.996600 -336.618300 -30.743330 118.455500 53.113430 -264.910900 328.457500 -45.052680 13.147030 50.346710 17.058080 -161.074900 86.873380 -173.595400 -28.507040 44.025190 43.640760 -147.264200 70.680400 -137.603400 
-10.399370 102.360800 57.336000 -11.035830 354.495200 -350.215400 -5.974743 112.613400 40.970500 -358.587400 358.213500 -334.530200 -3.567138 146.868500 52.065290 -358.744700 19.843940 -345.949300 27.534870 118.159200 61.666170 -125.324600 299.381300 -332.458200 -31.978310 119.846400 48.872150 -264.948000 328.420600 -47.652280 12.557960 50.662840 15.437710 -183.992300 87.241740 -196.507600 -28.440390 44.370940 43.825420 -137.479100 70.195370 -128.840700 
-10.839420 105.887200 55.817960 -11.574060 358.399700 -351.582400 -6.229806 112.782600 40.406440 -359.176800 358.445300 -333.179500 -3.547526 147.092900 51.346160 -359.442400 16.627350 -345.257400 27.770010 118.306900 59.115140 -130.709500 294.873400 -327.671400 -33.021270 121.002700 45.289880 -265.022100 328.321700 -49.766730 12.164190 50.281930 14.408820 -216.745900 87.702030 -229.240300 -28.414840 44.732470 43.958270 -129.102000 69.559220 -121.353400 
-10.758830 108.455900 54.390230 -11.930690 1.195414 -353.628800 -6.291514 113.099900 39.945410 -359.630200 358.634700 -332.807200 -3.455484 147.092200 50.814650 -0.000007 14.153730 -345.035800 28.042330 118.032500 57.194780 -135.963800 291.536200 -322.864700 -33.831070 121.874200 42.507830 -265.139000 328.147100 -51.299440 12.007570 49.054630 14.098160 -268.506300 87.466260 -280.960800 -28.439190 45.113130 44.028200 -122.077400 68.988110 -115.059600 
-9.976542 109.902500 53.026620 -12.082920 2.609951 -356.781800 -6.111446 113.583200 39.651030 -359.939500 358.762400 -333.660900 -3.266941 146.704500 50.528130 -0.370784 12.483580 -345.413500 28.423330 117.233800 56.135950 -140.742600 289.552200 -318.384000 -34.384510 122.512000 40.607500 -265.117000 328.181900 -52.508400 12.105530 46.691000 14.699300 -306.901400 85.243260 -319.259400 -28.518130 45.500290 44.153980 -115.990600 68.652870 -109.607300 
-8.487244 110.311000 51.696080 -12.003460 2.692216 -1.182297 -5.698090 114.215300 39.539790 -0.123622 358.828200 -335.707900 -2.981780 145.881300 50.484160 -0.560584 11.518370 -346.377700 28.945900 115.931300 55.951490 -144.722900 288.839500 -314.576900 -34.711360 122.996800 39.487720 -264.860500 328.598200 -53.626030 12.424340 43.184870 16.188330 -322.831900 81.284880 -335.018200 -28.645130 45.883400 44.413120 -110.359000 68.568850 -104.577300 
-6.462686 109.884700 50.407180 -11.612760 1.775953 -6.506807 -5.102680 114.969900 39.559190 -0.203897 358.842600 -338.695000 -2.623148 144.752300 50.626070 -0.603715 11.127080 -347.806100 29.558750 114.234400 56.425660 -147.239100 288.993000 -312.133400 -34.849960 123.322200 39.015700 -264.497700 329.209500 -54.529970 12.929140 38.812510 18.365800 -330.306200 76.227590 -342.269900 -28.812170 46.269030 44.732590 -104.969600 68.683910 -99.731620 
-4.074625 108.827300 49.168540 -10.840660 0.207635 -12.423730 -4.376453 115.820400 39.656700 -0.199637 358.820600 -342.364700 -2.214195 143.447600 50.897220 -0.544058 11.186790 -349.575100 30.210580 112.252700 57.342720 -148.153100 289.641800 -311.213600 -34.838640 123.482200 39.058660 -264.139300 329.830100 -55.118420 13.585060 33.850190 21.032250 -334.618000 70.459370 -346.333100 -29.011240 46.663730 45.039390 -99.694560 68.933040 -94.917180 
-1.494805 107.342300 47.988760 -9.677815 358.346600 -18.581360 -3.570645 116.740400 39.779800 -0.130528 358.778500 -346.450500 -1.778068 142.097100 51.240970 -0.426642 11.576910 -351.558100 30.850090 110.095800 58.486950 -147.654900 290.467300 -311.647900 -34.715710 123.470500 39.483820 -263.879900 330.280300 -55.306080 14.357250 28.574160 23.988200 -337.504200 64.312740 -348.971000 -29.234320 47.074070 45.260520 -94.479530 69.245590 -90.054270 
1.105020 105.633000 46.876430 -8.205080 356.541400 -24.601230 -2.736490 117.703300 39.875960 -0.018217 358.730900 -350.677300 -1.337915 140.830600 51.600660 -0.291223 12.175170 -353.625000 31.425980 107.873000 59.642610 -145.980800 291.192700 -313.219300 -34.519500 123.280900 40.158400 -263.809100 330.387400 -55.012170 15.210820 23.260690 27.034200 -339.653300 58.111320 -350.900300 -29.473390 47.506600 45.322940 -89.342090 69.551090 -85.135090 
3.553097 103.903000 45.840150 -6.594838 355.096700 -30.079250 -1.925227 118.682800 39.892670 -359.886600 358.688700 -354.767100 -0.916885 139.778100 51.919640 -0.167823 12.855950 -355.641800 31.886950 105.693900 60.593950 -143.237700 291.565800 -315.839700 -34.288340 122.907200 40.949620 -264.027100 329.981500 -54.142060 16.110920 18.186050 29.970780 -341.386900 52.168660 -352.472100 -29.720450 47.967880 45.153660 -84.373040 69.785000 -80.224860 
5.677674 102.355800 44.888510 -5.084679 354.251200 -34.596920 -1.188091 119.652400 39.777390 -359.760900 358.657900 -358.445400 -0.538126 139.069400 52.141250 -0.074615 13.490420 -357.470600 32.181710 103.667900 61.125260 -139.292900 291.352400 -319.660600 -34.060550 122.343100 41.724690 -264.670800 328.889900 -52.560650 17.022680 13.626500 32.598480 -342.877800 46.777810 -353.890900 -29.967460 48.464470 44.679670 -79.732550 69.893620 -75.457970 
7.306999 101.194900 44.030120 -3.933176 354.184400 -37.738550 -0.576318 120.585500 39.477620 -359.667100 358.640200 -1.446436 -0.224785 138.834600 52.208850 -0.018666 13.947890 -358.970900 32.258940 101.904700 61.020780 -133.611300 290.348100 -325.236100 -33.874470 121.582500 42.350830 -265.955100 326.930900 -50.048760 17.911240 9.858317 34.717820 -344.234400 42.203670 -355.298100 -30.206420 49.002940 43.827950 -75.633930 69.837810 -71.021800 
8.269324 100.623700 43.273570 -3.370890 355.056600 -39.104530 -0.141142 121.455800 38.940840 -359.630200 358.634700 -3.513962 -0.000012 139.203500 52.065800 0.000000 14.097420 0.000000 32.067370 100.513600 60.064800 -124.843300 288.442500 -333.935500 -33.768410 120.619100 42.695270 -268.253500 323.918800 -46.221320 18.741730 7.157756 36.129360 -345.541500 38.683950 -356.812400 -30.429320 49.589830 42.525500 -72.315440 69.592830 -67.128520 
8.554814 100.534700 42.693300 -3.374341 357.019300 -38.507450 0.136692 122.323400 38.149270 -359.630200 358.634700 -4.740938 0.139935 140.301100 51.800000 0.000335 14.092230 -0.604019 31.534180 99.431030 58.144420 -108.383200 286.114400 -350.341200 -33.718500 119.304700 43.021140 -272.577500 319.357500 -39.839510 19.608550 5.487366 36.889640 -347.062800 36.180520 -358.733800 -30.745040 50.495850 40.631370 -70.474060 69.314960 -64.267470 
